<?xml version="1.0" encoding="UTF-8" standalone="no"?>
<!DOCTYPE svg PUBLIC "-//W3C//DTD SVG 1.1//EN"
 "http://www.w3.org/Graphics/SVG/1.1/DTD/svg11.dtd">
<!-- Generated by graphviz version 2.36.0 (20140111.2315)
 -->
<!-- Title: G Pages: 1 -->
<svg width="362pt" height="96pt"
 viewBox="0.00 0.00 362.00 96.00" xmlns="http://www.w3.org/2000/svg" xmlns:xlink="http://www.w3.org/1999/xlink">
<g id="graph0" class="graph" transform="scale(1 1) rotate(0) translate(4 92)">
<title>G</title>
<polygon fill="white" stroke="none" points="-4,4 -4,-92 358,-92 358,4 -4,4"/>
<g id="clust1" class="cluster"><title>cluster_Global</title>
<path fill="none" stroke="gray" d="M210,-8C210,-8 334,-8 334,-8 340,-8 346,-14 346,-20 346,-20 346,-68 346,-68 346,-74 340,-80 334,-80 334,-80 210,-80 210,-80 204,-80 198,-74 198,-68 198,-68 198,-20 198,-20 198,-14 204,-8 210,-8"/>
<text text-anchor="middle" x="272" y="-67.2" font-family="Times,serif" font-size="11.00" fill="gray">Global</text>
</g>
<!-- \\MS_Controller_Api -->
<g id="node1" class="node"><title>\\MS_Controller_Api</title>
<polygon fill="none" stroke="black" points="337.5,-52 206.5,-52 206.5,-16 337.5,-16 337.5,-52"/>
<text text-anchor="middle" x="272" y="-31.2" font-family="Courier,monospace" font-size="11.00">MS_Controller_Api</text>
</g>
<!-- \\MS_Controller -->
<g id="node2" class="node"><title>\\MS_Controller</title>
<ellipse fill="none" stroke="black" cx="67" cy="-34" rx="66.8882" ry="18"/>
<text text-anchor="middle" x="67" y="-30.3" font-family="Times,serif" font-size="14.00" fill="gray">\MS_Controller</text>
</g>
<!-- \\MS_Controller_Api&#45;&gt;\\MS_Controller -->
<g id="edge1" class="edge"><title>\\MS_Controller_Api&#45;&gt;\\MS_Controller</title>
<path fill="none" stroke="black" d="M206.491,-34C186.727,-34 164.795,-34 144.322,-34"/>
<polygon fill="none" stroke="black" points="144.088,-30.5001 134.087,-34 144.087,-37.5001 144.088,-30.5001"/>
</g>
</g>
</svg>
