<?xml version="1.0" encoding="UTF-8" standalone="no"?>
<!DOCTYPE svg PUBLIC "-//W3C//DTD SVG 1.1//EN"
 "http://www.w3.org/Graphics/SVG/1.1/DTD/svg11.dtd">
<!-- Generated by graphviz version 2.36.0 (20140111.2315)
 -->
<!-- Title: G Pages: 1 -->
<svg width="494pt" height="258pt"
 viewBox="0.00 0.00 494.00 258.00" xmlns="http://www.w3.org/2000/svg" xmlns:xlink="http://www.w3.org/1999/xlink">
<g id="graph0" class="graph" transform="scale(1 1) rotate(0) translate(4 254)">
<title>G</title>
<polygon fill="white" stroke="none" points="-4,4 -4,-254 490,-254 490,4 -4,4"/>
<g id="clust1" class="cluster"><title>cluster_Global</title>
<path fill="none" stroke="gray" d="M316,-8C316,-8 466,-8 466,-8 472,-8 478,-14 478,-20 478,-20 478,-230 478,-230 478,-236 472,-242 466,-242 466,-242 316,-242 316,-242 310,-242 304,-236 304,-230 304,-230 304,-20 304,-20 304,-14 310,-8 316,-8"/>
<text text-anchor="middle" x="391" y="-229.2" font-family="Times,serif" font-size="11.00" fill="gray">Global</text>
</g>
<!-- \\MS_Controller_Api -->
<g id="node1" class="node"><title>\\MS_Controller_Api</title>
<polygon fill="none" stroke="black" points="456.5,-214 325.5,-214 325.5,-178 456.5,-178 456.5,-214"/>
<text text-anchor="middle" x="391" y="-193.2" font-family="Courier,monospace" font-size="11.00">MS_Controller_Api</text>
</g>
<!-- \\MS_Controller -->
<g id="node5" class="node"><title>\\MS_Controller</title>
<ellipse fill="none" stroke="black" cx="120" cy="-196" rx="66.8882" ry="18"/>
<text text-anchor="middle" x="120" y="-192.3" font-family="Times,serif" font-size="14.00" fill="gray">\MS_Controller</text>
</g>
<!-- \\MS_Controller_Api&#45;&gt;\\MS_Controller -->
<g id="edge1" class="edge"><title>\\MS_Controller_Api&#45;&gt;\\MS_Controller</title>
<path fill="none" stroke="black" d="M325.225,-196C286.673,-196 237.557,-196 197.154,-196"/>
<polygon fill="none" stroke="black" points="197.081,-192.5 187.081,-196 197.081,-199.5 197.081,-192.5"/>
</g>
<!-- \\MS_Model_Member -->
<g id="node2" class="node"><title>\\MS_Model_Member</title>
<polygon fill="none" stroke="black" points="450,-160 332,-160 332,-124 450,-124 450,-160"/>
<text text-anchor="middle" x="391" y="-139.2" font-family="Courier,monospace" font-size="11.00">MS_Model_Member</text>
</g>
<!-- \\MS_Model -->
<g id="node6" class="node"><title>\\MS_Model</title>
<ellipse fill="none" stroke="black" cx="120" cy="-142" rx="53.8905" ry="18"/>
<text text-anchor="middle" x="120" y="-138.3" font-family="Times,serif" font-size="14.00" fill="gray">\MS_Model</text>
</g>
<!-- \\MS_Model_Member&#45;&gt;\\MS_Model -->
<g id="edge2" class="edge"><title>\\MS_Model_Member&#45;&gt;\\MS_Model</title>
<path fill="none" stroke="black" d="M331.962,-142C288.546,-142 229.212,-142 184.526,-142"/>
<polygon fill="none" stroke="black" points="184.365,-138.5 174.365,-142 184.365,-145.5 184.365,-138.5"/>
</g>
<!-- \\MS_Model_Relationship -->
<g id="node3" class="node"><title>\\MS_Model_Relationship</title>
<polygon fill="none" stroke="black" points="470,-106 312,-106 312,-70 470,-70 470,-106"/>
<text text-anchor="middle" x="391" y="-85.2" font-family="Courier,monospace" font-size="11.00">MS_Model_Relationship</text>
</g>
<!-- \\MS_Model_CustomPostType -->
<g id="node7" class="node"><title>\\MS_Model_CustomPostType</title>
<ellipse fill="none" stroke="black" cx="120" cy="-61" rx="119.679" ry="18"/>
<text text-anchor="middle" x="120" y="-57.3" font-family="Times,serif" font-size="14.00" fill="gray">\MS_Model_CustomPostType</text>
</g>
<!-- \\MS_Model_Relationship&#45;&gt;\\MS_Model_CustomPostType -->
<g id="edge3" class="edge"><title>\\MS_Model_Relationship&#45;&gt;\\MS_Model_CustomPostType</title>
<path fill="none" stroke="black" d="M311.833,-80.1542C286.274,-77.5888 257.402,-74.6909 229.997,-71.9402"/>
<polygon fill="none" stroke="black" points="230.275,-68.4507 219.976,-70.9344 229.576,-75.4157 230.275,-68.4507"/>
</g>
<!-- \\MS_Model_Membership -->
<g id="node4" class="node"><title>\\MS_Model_Membership</title>
<polygon fill="none" stroke="black" points="463.5,-52 318.5,-52 318.5,-16 463.5,-16 463.5,-52"/>
<text text-anchor="middle" x="391" y="-31.2" font-family="Courier,monospace" font-size="11.00">MS_Model_Membership</text>
</g>
<!-- \\MS_Model_Membership&#45;&gt;\\MS_Model_CustomPostType -->
<g id="edge4" class="edge"><title>\\MS_Model_Membership&#45;&gt;\\MS_Model_CustomPostType</title>
<path fill="none" stroke="black" d="M318.266,-41.2C291.139,-43.9229 259.62,-47.0864 229.844,-50.0752"/>
<polygon fill="none" stroke="black" points="229.422,-46.5998 219.821,-51.0811 230.121,-53.5648 229.422,-46.5998"/>
</g>
</g>
</svg>
